<?xml version="1.0" encoding="UTF-8" standalone="no"?>
<!-- Created with Inkscape (http://www.inkscape.org/) -->

<svg
   xmlns:dc="http://purl.org/dc/elements/1.1/"
   xmlns:cc="http://creativecommons.org/ns#"
   xmlns:rdf="http://www.w3.org/1999/02/22-rdf-syntax-ns#"
   xmlns:svg="http://www.w3.org/2000/svg"
   xmlns="http://www.w3.org/2000/svg"
   xmlns:sodipodi="http://sodipodi.sourceforge.net/DTD/sodipodi-0.dtd"
   xmlns:inkscape="http://www.inkscape.org/namespaces/inkscape"
   width="210mm"
   height="297mm"
   viewBox="0 0 744.09448819 1052.3622047"
   id="svg2"
   version="1.1"
   inkscape:version="0.91 r13725"
   sodipodi:docname="container-cycle.svg">
  <defs
     id="defs4">
    <marker
       inkscape:stockid="Arrow2Lend"
       orient="auto"
       refY="0.0"
       refX="0.0"
       id="marker4767"
       style="overflow:visible;"
       inkscape:isstock="true">
      <path
         id="path4769"
         style="fill-rule:evenodd;stroke-width:0.625;stroke-linejoin:round;stroke:#000000;stroke-opacity:1;fill:#000000;fill-opacity:1"
         d="M 8.7185878,4.0337352 L -2.2072895,0.016013256 L 8.7185884,-4.0017078 C 6.9730900,-1.6296469 6.9831476,1.6157441 8.7185878,4.0337352 z "
         transform="scale(1.1) rotate(180) translate(1,0)" />
    </marker>
    <marker
       inkscape:stockid="Arrow2Lend"
       orient="auto"
       refY="0.0"
       refX="0.0"
       id="marker4763"
       style="overflow:visible;"
       inkscape:isstock="true">
      <path
         id="path4765"
         style="fill-rule:evenodd;stroke-width:0.625;stroke-linejoin:round;stroke:#000000;stroke-opacity:1;fill:#000000;fill-opacity:1"
         d="M 8.7185878,4.0337352 L -2.2072895,0.016013256 L 8.7185884,-4.0017078 C 6.9730900,-1.6296469 6.9831476,1.6157441 8.7185878,4.0337352 z "
         transform="scale(1.1) rotate(180) translate(1,0)" />
    </marker>
    <marker
       inkscape:stockid="Arrow2Lend"
       orient="auto"
       refY="0.0"
       refX="0.0"
       id="Arrow2Lend"
       style="overflow:visible;"
       inkscape:isstock="true">
      <path
         id="path4526"
         style="fill-rule:evenodd;stroke-width:0.625;stroke-linejoin:round;stroke:#000000;stroke-opacity:1;fill:#000000;fill-opacity:1"
         d="M 8.7185878,4.0337352 L -2.2072895,0.016013256 L 8.7185884,-4.0017078 C 6.9730900,-1.6296469 6.9831476,1.6157441 8.7185878,4.0337352 z "
         transform="scale(1.1) rotate(180) translate(1,0)" />
    </marker>
  </defs>
  <sodipodi:namedview
     id="base"
     pagecolor="#ffffff"
     bordercolor="#666666"
     borderopacity="1.0"
     inkscape:pageopacity="0.0"
     inkscape:pageshadow="2"
     inkscape:zoom="2"
     inkscape:cx="333.31328"
     inkscape:cy="639.37451"
     inkscape:document-units="px"
     inkscape:current-layer="layer1"
     showgrid="true"
     inkscape:snap-grids="true"
     inkscape:snap-bbox="true"
     inkscape:snap-global="true"
     inkscape:object-paths="true"
     inkscape:snap-others="true"
     inkscape:bbox-paths="true"
     inkscape:bbox-nodes="true"
     inkscape:snap-page="true"
     inkscape:object-nodes="true"
     inkscape:window-width="3070"
     inkscape:window-height="1752"
     inkscape:window-x="130"
     inkscape:window-y="48"
     inkscape:window-maximized="1"
     showguides="false">
    <inkscape:grid
       type="xygrid"
       id="grid3336" />
  </sodipodi:namedview>
  <metadata
     id="metadata7">
    <rdf:RDF>
      <cc:Work
         rdf:about="">
        <dc:format>image/svg+xml</dc:format>
        <dc:type
           rdf:resource="http://purl.org/dc/dcmitype/StillImage" />
        <dc:title></dc:title>
      </cc:Work>
    </rdf:RDF>
  </metadata>
  <g
     inkscape:label="Ebene 1"
     inkscape:groupmode="layer"
     id="layer1">
    <path
       style="fill:none;fill-opacity:1;fill-rule:evenodd;stroke:#000000;stroke-width:1px;stroke-linecap:butt;stroke-linejoin:miter;stroke-opacity:1"
       d="m 200,157.3622 405,-0.99999 c 20,0 20,20 20,20 l 0,300.99999 c 0,20 -25,20 -25,20 l -400,0 c 0,0 -20,0 -20,-20 0,-20 0,-300 0,-300 0,0 0,-20 20,-20 z"
       id="path4144-48-3-62"
       inkscape:connector-curvature="0"
       sodipodi:nodetypes="zzczcczcz" />
    <flowRoot
       xml:space="preserve"
       id="flowRoot4363"
       style="fill:black;stroke:none;stroke-opacity:1;stroke-width:1px;stroke-linejoin:miter;stroke-linecap:butt;fill-opacity:1;font-family:sans-serif;font-style:normal;font-weight:normal;font-size:40px;line-height:125%;letter-spacing:0px;word-spacing:0px"><flowRegion
         id="flowRegion4365"><rect
           id="rect4367"
           width="510"
           height="60"
           x="180"
           y="492.36221" /></flowRegion><flowPara
         id="flowPara4369" /></flowRoot>    <path
       style="fill:#ffffff;fill-opacity:1;fill-rule:evenodd;stroke:#000000;stroke-width:1px;stroke-linecap:butt;stroke-linejoin:miter;stroke-opacity:1"
       d="m 335.25,463.3622 134.5,-0.5 c 20,0 20,20 20,20 l 0,30 c 0,20 -25,20 -25,20 l -129.5,0.5 c 0,0 -20,0 -20,-20 l 0,-30 c 0,0 0,-20 20,-20 z"
       id="path4144-48-3"
       inkscape:connector-curvature="0"
       sodipodi:nodetypes="zzczcczcz" />
    <path
       style="fill:#ffffff;fill-opacity:1;fill-rule:evenodd;stroke:#000000;stroke-width:1px;stroke-linecap:butt;stroke-linejoin:miter;stroke-opacity:1"
       d="m 210,281.8622 134.5,-0.5 c 20,0 20,20 20,20 l 0,30 c 0,20 -25,20 -25,20 l -129.5,0.5 c 0,0 -20,0 -20,-20 l 0,-30 c 0,0 0,-20 20,-20 z"
       id="path4144-48-3-6"
       inkscape:connector-curvature="0"
       sodipodi:nodetypes="zzczcczcz" />
    <path
       style="fill:#ffffff;fill-opacity:1;fill-rule:evenodd;stroke:#000000;stroke-width:1px;stroke-linecap:butt;stroke-linejoin:miter;stroke-opacity:1"
       d="m 460.5,281.8622 134.5,-0.5 c 20,0 20,20 20,20 l 0,30 c 0,20 -25,20 -25,20 l -129.5,0.5 c 0,0 -20,0 -20,-20 l 0,-30 c 0,0 0,-20 20,-20 z"
       id="path4144-48-3-6-7"
       inkscape:connector-curvature="0"
       sodipodi:nodetypes="zzczcczcz" />
    <path
       style="opacity:1;fill:none;fill-opacity:1;stroke:#000000;stroke-opacity:1;marker-end:url(#marker4763);stroke-width:1;stroke-miterlimit:4;stroke-dasharray:none"
       id="path4445"
       sodipodi:type="arc"
       sodipodi:cx="403"
       sodipodi:cy="365.36221"
       sodipodi:rx="137.5"
       sodipodi:ry="137.5"
       sodipodi:start="0"
       sodipodi:end="0.82030475"
       d="M 540.5,365.36221 A 137.5,137.5 0 0 1 496.77477,465.92335"
       sodipodi:open="true" />
    <path
       style="opacity:1;fill:none;fill-opacity:1;stroke:#000000;stroke-opacity:1;marker-end:url(#marker4767);stroke-width:1;stroke-miterlimit:4;stroke-dasharray:none"
       id="path4445-3"
       sodipodi:type="arc"
       sodipodi:cx="403"
       sodipodi:cy="365.36221"
       sodipodi:rx="137.5"
       sodipodi:ry="137.5"
       sodipodi:start="2.3212879"
       sodipodi:end="3.1415927"
       d="M 309.22523,465.92335 A 137.5,137.5 0 0 1 265.5,365.36221"
       sodipodi:open="true" />
    <path
       style="opacity:1;fill:none;fill-opacity:1;stroke:#000000;stroke-opacity:1;marker-end:url(#Arrow2Lend);stroke-width:1;stroke-miterlimit:4;stroke-dasharray:none"
       id="path4445-3-5"
       sodipodi:type="arc"
       sodipodi:cx="403"
       sodipodi:cy="365.36221"
       sodipodi:rx="137.5"
       sodipodi:ry="137.5"
       sodipodi:start="3.9269908"
       sodipodi:end="5.4977871"
       d="m 305.77282,268.13503 a 137.5,137.5 0 0 1 194.45436,0"
       sodipodi:open="true" />
    <text
       xml:space="preserve"
       style="font-style:normal;font-weight:normal;font-size:40px;line-height:125%;font-family:sans-serif;letter-spacing:0px;word-spacing:0px;fill:#000000;fill-opacity:1;stroke:none;stroke-width:1px;stroke-linecap:butt;stroke-linejoin:miter;stroke-opacity:1"
       x="368.36304"
       y="511.16031"
       id="text4771"
       sodipodi:linespacing="125%"><tspan
         sodipodi:role="line"
         id="tspan4773"
         x="368.36304"
         y="511.16031"
         style="font-size:35px">edit</tspan></text>
    <text
       xml:space="preserve"
       style="font-style:normal;font-weight:normal;font-size:40px;line-height:125%;font-family:sans-serif;letter-spacing:0px;word-spacing:0px;fill:#000000;fill-opacity:1;stroke:none;stroke-width:1px;stroke-linecap:butt;stroke-linejoin:miter;stroke-opacity:1"
       x="208.24121"
       y="327.53018"
       id="text4775"
       sodipodi:linespacing="125%"><tspan
         sodipodi:role="line"
         id="tspan4777"
         x="208.24121"
         y="327.53018"
         style="font-size:35px">compile</tspan></text>
    <text
       xml:space="preserve"
       style="font-style:normal;font-weight:normal;font-size:40px;line-height:125%;font-family:sans-serif;letter-spacing:0px;word-spacing:0px;fill:#000000;fill-opacity:1;stroke:none;stroke-width:1px;stroke-linecap:butt;stroke-linejoin:miter;stroke-opacity:1"
       x="498.23584"
       y="327.53018"
       id="text4779"
       sodipodi:linespacing="125%"><tspan
         sodipodi:role="line"
         id="tspan4781"
         x="498.23584"
         y="327.53018"
         style="font-size:35px">run</tspan></text>
    <text
       xml:space="preserve"
       style="font-style:normal;font-weight:normal;font-size:40px;line-height:125%;font-family:sans-serif;letter-spacing:0px;word-spacing:0px;fill:#000000;fill-opacity:1;stroke:none;stroke-width:1px;stroke-linecap:butt;stroke-linejoin:miter;stroke-opacity:1"
       x="197.53296"
       y="200.08192"
       id="text4775-9"
       sodipodi:linespacing="125%"><tspan
         sodipodi:role="line"
         id="tspan4777-1"
         x="197.53296"
         y="200.08192"
         style="font-size:35px">development container</tspan></text>
    <path
       style="fill:none;fill-opacity:1;fill-rule:evenodd;stroke:#000000;stroke-width:1px;stroke-linecap:butt;stroke-linejoin:miter;stroke-opacity:1"
       d="m 180,72.362215 445,-1e-5 c 20,0 20,19.99999 20,19.99999 l 0,440.000005 c 0,20 -25,20 -25,20 l -440,0 c 0,0 -20,0 -20,-20 l 0,-439.999995 c 0,0 0,-19.99999 20,-19.99999 z"
       id="path4144-48-3-62-2"
       inkscape:connector-curvature="0"
       sodipodi:nodetypes="zzczcczcz" />
    <text
       xml:space="preserve"
       style="font-style:normal;font-weight:normal;font-size:40px;line-height:125%;font-family:sans-serif;letter-spacing:0px;word-spacing:0px;fill:#000000;fill-opacity:1;stroke:none;stroke-width:1px;stroke-linecap:butt;stroke-linejoin:miter;stroke-opacity:1"
       x="243.12866"
       y="113.58192"
       id="text4775-9-7"
       sodipodi:linespacing="125%"><tspan
         sodipodi:role="line"
         id="tspan4777-1-0"
         x="243.12866"
         y="113.58192"
         style="font-size:35px">development host</tspan></text>
  </g>
</svg>
