<?xml version="1.0" encoding="UTF-8" standalone="no"?>
<!-- Created with Inkscape (http://www.inkscape.org/) -->

<svg
   xmlns:dc="http://purl.org/dc/elements/1.1/"
   xmlns:cc="http://creativecommons.org/ns#"
   xmlns:rdf="http://www.w3.org/1999/02/22-rdf-syntax-ns#"
   xmlns:svg="http://www.w3.org/2000/svg"
   xmlns="http://www.w3.org/2000/svg"
   xmlns:sodipodi="http://sodipodi.sourceforge.net/DTD/sodipodi-0.dtd"
   xmlns:inkscape="http://www.inkscape.org/namespaces/inkscape"
   width="210mm"
   height="297mm"
   viewBox="0 0 744.09448819 1052.3622047"
   id="svg2"
   version="1.1"
   inkscape:version="0.91 r13725"
   sodipodi:docname="logo.svg">
  <defs
     id="defs4" />
  <sodipodi:namedview
     id="base"
     pagecolor="#ffffff"
     bordercolor="#666666"
     borderopacity="1.0"
     inkscape:pageopacity="0.0"
     inkscape:pageshadow="2"
     inkscape:zoom="0.64"
     inkscape:cx="272.4339"
     inkscape:cy="628.33616"
     inkscape:document-units="px"
     inkscape:current-layer="layer1"
     showgrid="true"
     inkscape:snap-grids="true"
     inkscape:snap-bbox="true"
     inkscape:snap-global="true"
     inkscape:object-paths="true"
     inkscape:snap-others="true"
     inkscape:bbox-paths="true"
     inkscape:bbox-nodes="true"
     inkscape:snap-page="true"
     inkscape:object-nodes="true"
     inkscape:window-width="1229"
     inkscape:window-height="1000"
     inkscape:window-x="51"
     inkscape:window-y="24"
     inkscape:window-maximized="1">
    <inkscape:grid
       type="xygrid"
       id="grid3336" />
  </sodipodi:namedview>
  <metadata
     id="metadata7">
    <rdf:RDF>
      <cc:Work
         rdf:about="">
        <dc:format>image/svg+xml</dc:format>
        <dc:type
           rdf:resource="http://purl.org/dc/dcmitype/StillImage" />
        <dc:title />
      </cc:Work>
    </rdf:RDF>
  </metadata>
  <g
     inkscape:label="Ebene 1"
     inkscape:groupmode="layer"
     id="layer1">
    <path
       style="fill:#0000ff;fill-rule:evenodd;stroke:none;stroke-width:1px;stroke-linecap:butt;stroke-linejoin:miter;stroke-opacity:1;fill-opacity:1"
       d="m 200.5,102.8622 30,0 c 20,0 20,20 20,20 0,0 0,10 0,30 0,20 -20,20 -20,20 l -30,0 c 0,0 -20,0 -20,-20 0,-20 0,-30 0,-30 0,0 0,-20 20,-20 z"
       id="path4144"
       inkscape:connector-curvature="0"
       sodipodi:nodetypes="zzczcczcz" />
    <path
       style="fill:#0000ff;fill-rule:evenodd;stroke:none;stroke-width:1px;stroke-linecap:butt;stroke-linejoin:miter;stroke-opacity:1;fill-opacity:1"
       d="m 120.5,182.8622 30,0 c 20,0 20,20 20,20 0,0 0,10 0,30 0,20 -20,20 -20,20 l -30,0 c 0,0 -20,0 -20,-20 0,-20 0,-30 0,-30 0,0 0,-20 20,-20 z"
       id="path4144-4"
       inkscape:connector-curvature="0"
       sodipodi:nodetypes="zzczcczcz" />
    <path
       style="fill:#0000ff;fill-rule:evenodd;stroke:none;stroke-width:1px;stroke-linecap:butt;stroke-linejoin:miter;stroke-opacity:1;fill-opacity:1"
       d="m 280.5,182.8622 30,0 c 20,0 20,20 20,20 0,0 0,10 0,30 0,20 -20,20 -20,20 l -30,0 c 0,0 -20,0 -20,-20 0,-20 0,-30 0,-30 0,0 0,-20 20,-20 z"
       id="path4144-6"
       inkscape:connector-curvature="0"
       sodipodi:nodetypes="zzczcczcz" />
    <path
       style="fill:#0000ff;fill-rule:evenodd;stroke:none;stroke-width:1px;stroke-linecap:butt;stroke-linejoin:miter;stroke-opacity:1;fill-opacity:1"
       d="m 200.5,262.8622 30,0 c 20,0 20,20 20,20 0,0 0,10 0,30 0,20 -20,20 -20,20 l -30,0 c 0,0 -20,0 -20,-20 0,-20 0,-30 0,-30 0,0 0,-20 20,-20 z"
       id="path4144-6-6"
       inkscape:connector-curvature="0"
       sodipodi:nodetypes="zzczcczcz" />
    <path
       style="fill:#0000ff;fill-opacity:1;fill-rule:evenodd;stroke:none;stroke-width:1px;stroke-linecap:butt;stroke-linejoin:miter;stroke-opacity:1"
       d="m 420,102.3622 30,0 c 20,0 20,20 20,20 0,0 0,10 0,30 0,20 -20,20 -20,20 l -30,0 c 0,0 -20,0 -20,-20 0,-20 0,-30 0,-30 0,0 0,-20 20,-20 z"
       id="path4144-6-6-0"
       inkscape:connector-curvature="0"
       sodipodi:nodetypes="zzczcczcz" />
    <path
       style="fill:#0000ff;fill-opacity:1;fill-rule:evenodd;stroke:none;stroke-width:1px;stroke-linecap:butt;stroke-linejoin:miter;stroke-opacity:1"
       d="m 420,262.3622 30,0 c 20,0 20,20 20,20 0,0 0,10 0,30 0,20 -20,20 -20,20 l -30,0 c 0,0 -20,0 -20,-20 0,-20 0,-30 0,-30 0,0 0,-20 20,-20 z"
       id="path4144-6-6-0-6"
       inkscape:connector-curvature="0"
       sodipodi:nodetypes="zzczcczcz" />
    <path
       style="fill:#0000ff;fill-opacity:1;fill-rule:evenodd;stroke:none;stroke-width:1px;stroke-linecap:butt;stroke-linejoin:miter;stroke-opacity:1"
       d="m 420,-17.637796 30,0 c 20,0 20,19.9999996 20,19.9999996 0,0 0,10.0000014 0,30.0000014 0,20 -20,20 -20,20 l -30,0 c 0,0 -20,0 -20,-20 0,-20 0,-30.0000014 0,-30.0000014 0,0 0,-19.9999996 20,-19.9999996 z"
       id="path4144-6-1"
       inkscape:connector-curvature="0"
       sodipodi:nodetypes="zzczcczcz" />
    <path
       style="fill:#0000ff;fill-rule:evenodd;stroke:none;stroke-width:1px;stroke-linecap:butt;stroke-linejoin:miter;stroke-opacity:1"
       d="m 280,162.3622 c 0,10 10,10 10,10 l 10,0 c 0,0 10,0 10,-10 0,-10 10,-10 10,-10 l 60,0 c 10,0 10,-10 10,-10 l 0,-10 c 0,0 0,-10 -10,-10 l -60,0 c -40,0 -40,30 -40,40 z"
       id="path4153"
       inkscape:connector-curvature="0"
       sodipodi:nodetypes="zcczczcczzz" />
    <path
       style="fill:#0000ff;fill-rule:evenodd;stroke:none;stroke-width:1px;stroke-linecap:butt;stroke-linejoin:miter;stroke-opacity:1"
       d="m 279.5,271.8622 c 0,-10 10,-10 10,-10 l 10,0 c 0,0 10,0 10,10 0,10 10,10 10,10 l 60.5,0.5 c 10,0 10,10 10,10 l 0,10 c 0,0 0,10 -10,10 l -60.5,-0.5 c -40,0 -40,-30 -40,-40 z"
       id="path4153-7"
       inkscape:connector-curvature="0"
       sodipodi:nodetypes="zcczczcczzz" />
    <path
       style="fill:#0000ff;fill-rule:evenodd;stroke:none;stroke-width:1px;stroke-linecap:butt;stroke-linejoin:miter;stroke-opacity:1"
       d="m 119.5,272.86221 c 0,-10 10,-10 10,-10 l 10,0 c 0,0 10,0 10,10 0,10 10,10 10,10 l 0.5,-0.50001 c 10,0 10,10 10,10 l 0,10 c 0,0 0,10 -10,10 l -0.5,0.50001 c -40,0 -40,-30 -40,-40 z"
       id="path4153-7-2"
       inkscape:connector-curvature="0"
       sodipodi:nodetypes="zcczczcczzz" />
    <path
       style="fill:#0000ff;fill-rule:evenodd;stroke:none;stroke-width:1px;stroke-linecap:butt;stroke-linejoin:miter;stroke-opacity:1"
       d="m 120.5,161.8622 c 0,10 10,10 10,10 l 10,0 c 0,0 10,0 10,-10 0,-10 10,-10 10,-10 l 0.5,0.50001 c 10,0 10,-10 10,-10 l 0,-10 c 0,0 0,-10 -10,-10 l -0.5,-0.50001 c -40,0 -40,30 -40,40 z"
       id="path4153-7-2-5"
       inkscape:connector-curvature="0"
       sodipodi:nodetypes="zcczczcczzz" />
    <path
       style="fill:#0000ff;fill-rule:evenodd;stroke:none;stroke-width:1px;stroke-linecap:butt;stroke-linejoin:miter;stroke-opacity:1"
       d="m 310,162.3622 c 0,10 -10,10 -10,10 l -10,0 c 0,0 -10,0 -10,-10 0,-10 -10,-10 -10,-10 l -0.5,0.50001 c -10,0 -10,-10 -10,-10 l 0,-10 c 0,0 0,-10 10,-10 l 0.5,-0.50001 c 40,0 40,30 40,40 z"
       id="path4153-7-2-5-5"
       inkscape:connector-curvature="0"
       sodipodi:nodetypes="zcczczcczzz" />
    <path
       style="fill:#0000ff;fill-rule:evenodd;stroke:none;stroke-width:1px;stroke-linecap:butt;stroke-linejoin:miter;stroke-opacity:1"
       d="m 190,202.3622 c -10,0 -10,10 -10,10 l 0,10 c 0,0 0,10 10,10 10,0 40,0 50,0 10,0 10,-10 10,-10 l 0,-10 c 0,0 0,-10 -10,-10 -10,0 -40,0 -50,0 z"
       id="path4215"
       inkscape:connector-curvature="0"
       sodipodi:nodetypes="zcczzcczz" />
    <path
       style="fill:#0000ff;fill-rule:evenodd;stroke:none;stroke-width:1px;stroke-linecap:butt;stroke-linejoin:miter;stroke-opacity:1"
       d="m 450,192.3622 c 0,-10 -10,-10 -10,-10 l -10,0 c 0,0 -10,0 -10,10 0,10 0,40 0,50 0,10 10,10 10,10 l 10,0 c 0,0 10,0 10,-10 0,-10 0,-40 0,-50 z"
       id="path4215-3"
       inkscape:connector-curvature="0"
       sodipodi:nodetypes="zcczzcczz" />
    <path
       style="fill:#0000ff;fill-rule:evenodd;stroke:none;stroke-width:1px;stroke-linecap:butt;stroke-linejoin:miter;stroke-opacity:1"
       d="m 449.5,71.862204 c 0,-10 -10,-10 -10,-10 l -10,0 c 0,0 -10,0 -10,10 l 0.5,10.500001 c 0,10 10,10 10,10 l 10,0 c 0,0 10,0 10,-10 z"
       id="path4215-3-3"
       inkscape:connector-curvature="0"
       sodipodi:nodetypes="zcczzcczz" />
    <path
       style="fill:#0000ff;fill-opacity:1;fill-rule:evenodd;stroke:none;stroke-width:1px;stroke-linecap:butt;stroke-linejoin:miter;stroke-opacity:1"
       d="m 500,102.3622 30,0 c 20,0 20,20 20,20 0,0 0,10 0,30 0,20 -20,20 -20,20 l -30,0 c 0,0 -20,0 -20,-20 0,-20 0,-30 0,-30 0,0 0,-20 20,-20 z"
       id="path4144-6-6-0-61"
       inkscape:connector-curvature="0"
       sodipodi:nodetypes="zzczcczcz" />
    <path
       style="fill:#0000ff;fill-opacity:1;fill-rule:evenodd;stroke:none;stroke-width:1px;stroke-linecap:butt;stroke-linejoin:miter;stroke-opacity:1"
       d="m 500,262.3622 30,0 c 20,0 20,20 20,20 0,0 0,10 0,30 0,20 -20,20 -20,20 l -30,0 c 0,0 -20,0 -20,-20 0,-20 0,-30 0,-30 0,0 0,-20 20,-20 z"
       id="path4144-6-6-0-6-3"
       inkscape:connector-curvature="0"
       sodipodi:nodetypes="zzczcczcz" />
    <path
       style="fill:#0000ff;fill-rule:evenodd;stroke:none;stroke-width:1px;stroke-linecap:butt;stroke-linejoin:miter;stroke-opacity:1"
       d="m 530,192.3622 c 0,-10 -10,-10 -10,-10 l -10,0 c 0,0 -10,0 -10,10 0,10 0,40 0,50 0,10 10,10 10,10 l 10,0 c 0,0 10,0 10,-10 0,-10 0,-40 0,-50 z"
       id="path4215-3-4"
       inkscape:connector-curvature="0"
       sodipodi:nodetypes="zcczzcczz" />
    <circle
       style="fill:#0000ff;fill-opacity:1;stroke:none;stroke-width:25;stroke-linecap:round;stroke-linejoin:round;stroke-miterlimit:4;stroke-dasharray:none;stroke-opacity:1"
       id="path4297"
       cx="515"
       cy="17.362206"
       r="35" />
  </g>
</svg>
