<?xml version="1.0" encoding="UTF-8" standalone="no"?>
<!-- Created with Inkscape (http://www.inkscape.org/) -->

<svg
   xmlns:dc="http://purl.org/dc/elements/1.1/"
   xmlns:cc="http://creativecommons.org/ns#"
   xmlns:rdf="http://www.w3.org/1999/02/22-rdf-syntax-ns#"
   xmlns:svg="http://www.w3.org/2000/svg"
   xmlns="http://www.w3.org/2000/svg"
   xmlns:sodipodi="http://sodipodi.sourceforge.net/DTD/sodipodi-0.dtd"
   xmlns:inkscape="http://www.inkscape.org/namespaces/inkscape"
   width="210mm"
   height="297mm"
   viewBox="0 0 744.09448819 1052.3622047"
   id="svg2"
   version="1.1"
   inkscape:version="0.91 r13725"
   sodipodi:docname="logo.svg">
  <defs
     id="defs4" />
  <sodipodi:namedview
     id="base"
     pagecolor="#ffffff"
     bordercolor="#666666"
     borderopacity="1.0"
     inkscape:pageopacity="0.0"
     inkscape:pageshadow="2"
     inkscape:zoom="0.45254834"
     inkscape:cx="295.94637"
     inkscape:cy="542.84966"
     inkscape:document-units="px"
     inkscape:current-layer="layer1"
     showgrid="true"
     inkscape:snap-grids="true"
     inkscape:snap-bbox="true"
     inkscape:snap-global="true"
     inkscape:object-paths="true"
     inkscape:snap-others="true"
     inkscape:bbox-paths="true"
     inkscape:bbox-nodes="true"
     inkscape:snap-page="true"
     inkscape:object-nodes="true"
     inkscape:window-width="1229"
     inkscape:window-height="1000"
     inkscape:window-x="51"
     inkscape:window-y="24"
     inkscape:window-maximized="1">
    <inkscape:grid
       type="xygrid"
       id="grid3336" />
  </sodipodi:namedview>
  <metadata
     id="metadata7">
    <rdf:RDF>
      <cc:Work
         rdf:about="">
        <dc:format>image/svg+xml</dc:format>
        <dc:type
           rdf:resource="http://purl.org/dc/dcmitype/StillImage" />
        <dc:title></dc:title>
      </cc:Work>
    </rdf:RDF>
  </metadata>
  <g
     inkscape:label="Ebene 1"
     inkscape:groupmode="layer"
     id="layer1">
    <path
       style="fill:#0000ff;fill-rule:evenodd;stroke:none;stroke-width:1px;stroke-linecap:butt;stroke-linejoin:miter;stroke-opacity:1;fill-opacity:1"
       d="m 200.5,102.8622 30,0 c 20,0 20,20 20,20 0,0 0,10 0,30 0,20 -20,20 -20,20 l -30,0 c 0,0 -20,0 -20,-20 0,-20 0,-30 0,-30 0,0 0,-20 20,-20 z"
       id="path4144"
       inkscape:connector-curvature="0"
       sodipodi:nodetypes="zzczcczcz" />
    <path
       style="fill:#0000ff;fill-rule:evenodd;stroke:none;stroke-width:1px;stroke-linecap:butt;stroke-linejoin:miter;stroke-opacity:1;fill-opacity:1"
       d="m 120.5,182.8622 30,0 c 20,0 20,20 20,20 0,0 0,10 0,30 0,20 -20,20 -20,20 l -30,0 c 0,0 -20,0 -20,-20 0,-20 0,-30 0,-30 0,0 0,-20 20,-20 z"
       id="path4144-4"
       inkscape:connector-curvature="0"
       sodipodi:nodetypes="zzczcczcz" />
    <path
       style="fill:#0000ff;fill-rule:evenodd;stroke:none;stroke-width:1px;stroke-linecap:butt;stroke-linejoin:miter;stroke-opacity:1;fill-opacity:1"
       d="m 280.5,182.8622 30,0 c 20,0 20,20 20,20 0,0 0,10 0,30 0,20 -20,20 -20,20 l -30,0 c 0,0 -20,0 -20,-20 0,-20 0,-30 0,-30 0,0 0,-20 20,-20 z"
       id="path4144-6"
       inkscape:connector-curvature="0"
       sodipodi:nodetypes="zzczcczcz" />
    <path
       style="fill:#0000ff;fill-rule:evenodd;stroke:none;stroke-width:1px;stroke-linecap:butt;stroke-linejoin:miter;stroke-opacity:1;fill-opacity:1"
       d="m 200.5,262.8622 30,0 c 20,0 20,20 20,20 0,0 0,10 0,30 0,20 -20,20 -20,20 l -30,0 c 0,0 -20,0 -20,-20 0,-20 0,-30 0,-30 0,0 0,-20 20,-20 z"
       id="path4144-6-6"
       inkscape:connector-curvature="0"
       sodipodi:nodetypes="zzczcczcz" />
    <path
       style="fill:#0000ff;fill-rule:evenodd;stroke:none;stroke-width:1px;stroke-linecap:butt;stroke-linejoin:miter;stroke-opacity:1;fill-opacity:1"
       d="m 410.5,102.8622 30,0 c 20,0 20,20 20,20 0,0 0,10 0,30 0,20 -20,20 -20,20 l -30,0 c 0,0 -20,0 -20,-20 0,-20 0,-30 0,-30 0,0 0,-20 20,-20 z"
       id="path4144-6-6-0"
       inkscape:connector-curvature="0"
       sodipodi:nodetypes="zzczcczcz" />
    <path
       style="fill:#0000ff;fill-rule:evenodd;stroke:none;stroke-width:1px;stroke-linecap:butt;stroke-linejoin:miter;stroke-opacity:1;fill-opacity:1"
       d="m 410.5,262.8622 30,0 c 20,0 20,20 20,20 0,0 0,10 0,30 0,20 -20,20 -20,20 l -30,0 c 0,0 -20,0 -20,-20 0,-20 0,-30 0,-30 0,0 0,-20 20,-20 z"
       id="path4144-6-6-0-6"
       inkscape:connector-curvature="0"
       sodipodi:nodetypes="zzczcczcz" />
    <path
       style="fill:#0000ff;fill-rule:evenodd;stroke:none;stroke-width:1px;stroke-linecap:butt;stroke-linejoin:miter;stroke-opacity:1;fill-opacity:1"
       d="m 410.5,-17.137795 30,0 c 20,0 20,20.0000002 20,20.0000002 0,0 0,10.0000008 0,30.0000008 0,20 -20,20 -20,20 l -30,0 c 0,0 -20,0 -20,-20 0,-20 0,-30.0000008 0,-30.0000008 0,0 0,-20.0000002 20,-20.0000002 z"
       id="path4144-6-1"
       inkscape:connector-curvature="0"
       sodipodi:nodetypes="zzczcczcz" />
    <path
       style="fill:none;fill-rule:evenodd;stroke:#0000ff;stroke-width:25;stroke-linecap:round;stroke-linejoin:miter;stroke-miterlimit:4;stroke-dasharray:none;stroke-opacity:1"
       d="m 425,72.362205 0,10"
       id="path4238"
       inkscape:connector-curvature="0"
       sodipodi:nodetypes="cc" />
    <path
       style="fill:none;fill-rule:evenodd;stroke:#0000ff;stroke-width:25;stroke-linecap:round;stroke-linejoin:miter;stroke-miterlimit:4;stroke-dasharray:none;stroke-opacity:1"
       d="m 425,192.3622 0,50"
       id="path4240"
       inkscape:connector-curvature="0"
       sodipodi:nodetypes="cc" />
    <path
       style="fill:none;fill-rule:evenodd;stroke:#0000ff;stroke-width:25;stroke-linecap:round;stroke-linejoin:miter;stroke-miterlimit:4;stroke-dasharray:none;stroke-opacity:1"
       d="m 370,137.3622 c -55,0 -55,0 -55,25"
       id="path4242"
       inkscape:connector-curvature="0"
       sodipodi:nodetypes="cc" />
    <path
       style="fill:none;fill-rule:evenodd;stroke:#0000ff;stroke-width:25;stroke-linecap:round;stroke-linejoin:miter;stroke-miterlimit:4;stroke-dasharray:none;stroke-opacity:1"
       d="m 370,297.3622 c -55,0 -55,0 -55,-25"
       id="path4242-0"
       inkscape:connector-curvature="0"
       sodipodi:nodetypes="cc" />
    <path
       style="fill:none;fill-rule:evenodd;stroke:#0000ff;stroke-width:25;stroke-linecap:round;stroke-linejoin:miter;stroke-miterlimit:4;stroke-dasharray:none;stroke-opacity:1"
       d="m 190,217.3622 50,0"
       id="path4240-6"
       inkscape:connector-curvature="0"
       sodipodi:nodetypes="cc" />
    <path
       style="fill:none;fill-rule:evenodd;stroke:#0000ff;stroke-width:25;stroke-linecap:round;stroke-linejoin:miter;stroke-miterlimit:4;stroke-dasharray:none;stroke-opacity:1"
       d="m 160,137.3622 c -25,0 -25,0 -25,25"
       id="path4242-1"
       inkscape:connector-curvature="0"
       sodipodi:nodetypes="cc" />
    <path
       style="fill:none;fill-rule:evenodd;stroke:#0000ff;stroke-width:25;stroke-linecap:round;stroke-linejoin:miter;stroke-miterlimit:4;stroke-dasharray:none;stroke-opacity:1"
       d="m 160,297.3622 c -25,0 -25,0 -25,-25"
       id="path4242-1-4"
       inkscape:connector-curvature="0"
       sodipodi:nodetypes="cc" />
    <path
       style="fill:none;fill-rule:evenodd;stroke:#0000ff;stroke-width:25;stroke-linecap:round;stroke-linejoin:miter;stroke-miterlimit:4;stroke-dasharray:none;stroke-opacity:1"
       d="m 270,137.3622 c 15,0 15,0 15,25"
       id="path4242-1-3"
       inkscape:connector-curvature="0"
       sodipodi:nodetypes="cc" />
    <circle
       style="fill:#0000ff;fill-opacity:1;stroke:none;stroke-width:16;stroke-linecap:round;stroke-linejoin:round;stroke-miterlimit:4;stroke-dasharray:none"
       id="path4338"
       cx="545"
       cy="37.362206"
       r="55" />
    <path
       style="fill:none;fill-rule:evenodd;stroke:#0000ff;stroke-width:25;stroke-linecap:round;stroke-linejoin:miter;stroke-miterlimit:4;stroke-dasharray:none;stroke-opacity:1"
       d="m 500,322.3622 c 0,0 0,-150 0,-180 0,-30 30,-30 30,-30 l 30,0 c 0,0 30,0 30,30 0,30 0,180 0,180"
       id="path4344"
       inkscape:connector-curvature="0"
       sodipodi:nodetypes="czcczc" />
  </g>
</svg>
